<?xml version="1.0" encoding="UTF-8"?>
<!DOCTYPE svg PUBLIC "-//W3C//DTD SVG 1.1//EN" "http://www.w3.org/Graphics/SVG/1.1/DTD/svg11.dtd">
<!-- Creator: CorelDRAW -->
<svg xmlns="http://www.w3.org/2000/svg" xml:space="preserve" width="94.9359mm" height="94.9218mm" version="1.1" style="shape-rendering:geometricPrecision; text-rendering:geometricPrecision; image-rendering:optimizeQuality; fill-rule:evenodd; clip-rule:evenodd"
viewBox="0 0 6451.18 6450.22"
 xmlns:xlink="http://www.w3.org/1999/xlink"
 xmlns:xodm="http://www.corel.com/coreldraw/odm/2003">
 <defs>
  <style type="text/css">
   <![CDATA[
    .fil0 {fill:#568241}
   ]]>
  </style>
 </defs>
 <g id="Layer_x0020_1">
  <metadata id="CorelCorpID_0Corel-Layer"/>
  <path class="fil0" d="M2353.36 120.95c1714.56,-481.54 3494.86,517.91 3976.45,2232.45 630.2,2376.1 -1278.9,4603.6 -3761.29,3531.59l-12.48 -5.44 -12.12 -5.45c-806.52,-365.68 -1293.76,-1133.95 -1227.54,-2023.68 72.79,-977.33 757.93,-1751.05 1757.07,-1810.99 -118.37,-5.94 -339.64,123.28 -433.49,187.79 -24.97,18.02 -49.42,36.1 -73.67,55.12 -539.92,424.12 -753.86,1144.55 -641.08,1808.04 146.29,861.08 817.96,1486.64 1653.8,915.23 639.89,-437.39 671.55,-956.1 557.63,-1663.92 -122.24,-753.65 -271.31,-1343.88 400.83,-1894.64 -66.53,-23.23 -132.85,-40.7 -201.85,-54.8 -81.18,-16.15 -161.29,-26.79 -243.78,-33.77 -324.31,-27.37 -633.04,-3.14 -951.84,57.36 -942.09,178.89 -1991.44,604.36 -2378.11,1558.12 -419.66,1035.04 145.08,2206.25 974.04,2857.8 558.7,434.55 1210.69,659.93 1921,589.25 -1596.59,214.7 -3096.48,-773.91 -3535.99,-2323.63 -481.58,-1714.52 517.92,-3494.81 2232.4,-3976.44z"/>
 </g>
</svg>
