<?xml version="1.0" encoding="UTF-8"?>
<!DOCTYPE svg PUBLIC "-//W3C//DTD SVG 1.1//EN" "http://www.w3.org/Graphics/SVG/1.1/DTD/svg11.dtd">
<!-- Creator: CorelDRAW -->
<svg xmlns="http://www.w3.org/2000/svg" xml:space="preserve" width="149.749mm" height="44.4718mm" version="1.1" style="shape-rendering:geometricPrecision; text-rendering:geometricPrecision; image-rendering:optimizeQuality; fill-rule:evenodd; clip-rule:evenodd"
viewBox="0 0 14974.94 4447.18"
 xmlns:xlink="http://www.w3.org/1999/xlink"
 xmlns:xodm="http://www.corel.com/coreldraw/odm/2003">
 <defs>
  <style type="text/css">
   <![CDATA[
    .str0 {stroke:#4E148C;stroke-width:7.06;stroke-miterlimit:2.61313}
    .fil2 {fill:none}
    .fil0 {fill:#4E148C}
    .fil3 {fill:#568241}
    .fil1 {fill:#4E148C;fill-rule:nonzero}
   ]]>
  </style>
 </defs>
 <g id="Layer_x0020_1">
  <metadata id="CorelCorpID_0Corel-Layer"/>
  <g id="_2031189007440">
   <path class="fil0" d="M13643.21 1106.79l0 1970.53c0,50.96 18.02,94.47 53.99,130.44 36.03,35.98 79.5,53.99 130.52,53.99l188.94 0c53.99,0 98.95,-18.01 134.98,-53.99 35.97,-35.97 53.98,-79.48 53.98,-130.44l0 -1102.27c0,-155.95 50.95,-285.68 152.94,-389.13 102.02,-103.5 230.98,-155.21 386.94,-155.21l53.98 0c116.96,0 175.46,-43.53 175.46,-130.5l0 -256.44c0,-53.99 -17.27,-97.46 -51.76,-130.45 -34.47,-33 -78.74,-49.53 -132.73,-49.53 -260.91,33 -455.86,137.99 -584.83,314.95l0 -71.95c0,-51.02 -18.01,-94.54 -53.98,-130.52 -36.03,-35.97 -80.99,-53.98 -134.98,-53.98l-188.94 0c-51.02,0 -94.49,18.01 -130.52,53.98 -35.97,35.98 -53.99,79.5 -53.99,130.52zm-13456.36 2154.96l1430.66 0c287.95,0 529.4,-86.23 724.37,-258.66 194.9,-172.49 292.42,-386.2 292.42,-641.1 0,-326.96 -146.98,-578.87 -440.9,-755.83 203.96,-164.99 305.92,-376.42 305.92,-634.39 0,-245.92 -92.24,-450.6 -276.68,-614.11 -184.43,-163.45 -416.17,-245.17 -695.08,-245.17l-1340.71 0c-51.02,0 -94.47,18.01 -130.45,53.99 -36.02,35.97 -53.99,79.49 -53.99,130.44l0 2780.4c0,50.96 17.97,94.47 53.99,130.44 35.98,35.98 79.43,53.99 130.45,53.99zm1430.66 -1340.69c111.01,0 203.2,37.52 276.69,112.49 73.49,74.97 110.26,167.96 110.26,278.91 0,111.01 -36.77,204 -110.26,278.97 -73.49,74.98 -165.68,112.44 -276.69,112.44l-1012.25 0 0 -782.81 1012.25 0zm-89.95 -1250.69c98.93,0 181.46,33.01 247.4,98.95 66,65.99 98.98,148.46 98.98,247.45 0,101.97 -32.98,185.98 -98.98,251.97 -65.94,65.96 -148.47,98.95 -247.4,98.95l-922.3 0 0 -697.32 922.3 0zm1520.62 2406.95c0,50.96 18.01,94.47 53.99,130.44 36.02,35.98 79.48,53.99 130.49,53.99l188.97 0c53.98,0 98.92,-18.01 134.97,-53.99 35.96,-35.97 53.97,-79.48 53.97,-130.44l0 -1970.53c0,-51.02 -18.01,-94.54 -53.97,-130.52 -36.05,-35.97 -80.99,-53.98 -134.97,-53.98l-188.97 0c-51.01,0 -94.47,18.01 -130.49,53.98 -35.98,35.98 -53.99,79.5 -53.99,130.52l0 1970.53zm-76.46 -2721.9c0,101.98 33.73,186.73 101.22,254.21 67.48,67.49 152.23,101.22 254.2,101.22 104.95,0 190.44,-33.73 256.43,-101.22 66.01,-67.48 98.95,-152.23 98.95,-254.21 0,-101.97 -33.73,-186.72 -101.22,-254.19 -67.48,-67.5 -152.18,-101.23 -254.16,-101.23 -101.97,0 -186.72,33.73 -254.2,101.23 -67.49,67.47 -101.22,152.22 -101.22,254.19zm3761.09 2721.9c0,50.96 18.01,94.47 53.99,130.44 36.02,35.98 79.48,53.99 130.49,53.99l188.97 0c53.98,0 98.92,-18.01 134.95,-53.99 35.98,-35.97 53.99,-79.48 53.99,-130.44l0 -1192.23c0,-140.98 47.24,-258.67 141.73,-353.16 94.47,-94.47 210.68,-141.71 348.63,-141.71 137.99,0 253.46,47.24 346.45,141.71 92.99,94.49 139.43,212.18 139.43,353.16l0 1192.23c0,50.96 18.01,94.47 53.99,130.44 36.02,35.98 79.5,53.99 130.5,53.99l188.96 0c53.99,0 98.99,-18.01 134.97,-53.99 35.96,-35.97 53.97,-79.48 53.97,-130.44l0 -1192.23c0,-140.98 47.26,-258.67 141.73,-353.16 94.47,-94.47 210.69,-141.71 348.68,-141.71 137.94,0 253.42,47.24 346.4,141.71 92.99,94.49 139.48,212.18 139.48,353.16l0 1192.23c0,50.96 17.97,94.47 53.99,130.44 35.98,35.98 79.45,53.99 130.45,53.99l188.96 0c53.99,0 98.25,-18.01 132.74,-53.99 34.48,-35.97 51.7,-79.48 51.7,-130.44l0 -1354.2c0,-248.94 -87.72,-455.92 -263.19,-620.85 -175.46,-164.99 -398.15,-247.46 -668.1,-247.46 -329.92,0 -578.87,127.47 -746.82,382.43 -167.93,-254.96 -413.9,-382.43 -737.82,-382.43 -275.94,0 -494.86,105 -656.83,314.95l0 -62.97c0,-51.02 -18.01,-94.54 -53.99,-130.52 -36.03,-35.97 -80.97,-53.98 -134.95,-53.98l-188.97 0c-51.01,0 -94.47,18.01 -130.49,53.98 -35.98,35.98 -53.99,79.5 -53.99,130.52l0 1970.53zm5142.33 218.18c281.95,0 526.38,-95.96 733.34,-287.96l0 36.03c0,50.97 17.22,94.49 51.71,130.46 34.54,35.98 78.74,53.99 132.73,53.99l188.96 0c53.98,0 98.25,-18.01 132.74,-53.99 34.47,-35.97 51.74,-79.49 51.74,-130.46l0 -1970.53c0,-51.01 -17.27,-94.52 -51.74,-130.5 -34.49,-35.97 -78.76,-53.98 -132.74,-53.98l-188.96 0c-53.99,0 -98.19,18.01 -132.73,53.98 -34.49,35.98 -51.71,79.49 -51.71,130.5l0 35.98c-206.96,-191.98 -451.39,-287.96 -733.34,-287.96 -317.93,0 -583.35,117.75 -796.31,353.21 -212.97,235.4 -319.41,530.09 -319.41,884.04 0,353.89 106.44,648.6 319.41,884.03 212.96,235.46 478.38,353.16 796.31,353.16zm94.47 -1912.03c176.96,0 326.16,64.46 447.63,193.42 121.48,128.96 182.21,289.44 182.21,481.42 0,191.94 -60.73,352.4 -182.21,481.36 -121.47,128.97 -270.67,193.49 -447.63,193.49 -176.94,0 -326.14,-64.52 -447.63,-193.49 -121.46,-128.96 -182.19,-289.42 -182.19,-481.36 0,-191.98 60.73,-352.46 182.19,-481.42 121.49,-128.96 270.69,-193.42 447.63,-193.42z"/>
   <path class="fil1" d="M11126.3 4374.95c0,14.62 5.16,27.09 15.48,37.4 10.32,10.32 22.8,15.48 37.41,15.48l67.09 0c15.48,0 28.16,-5.16 38.05,-15.48 9.89,-10.31 14.83,-22.78 14.83,-37.4l0 -323.8 367.66 0c15.47,0 28.37,-4.94 38.69,-14.84 10.33,-9.89 15.48,-22.57 15.48,-38.05l0 -52.88c0,-15.49 -5.15,-28.39 -15.48,-38.71 -10.32,-10.31 -23.22,-15.48 -38.69,-15.48l-367.66 0 0 -206.39 439.89 0c15.48,0 28.17,-5.17 38.06,-15.49 9.89,-10.32 14.84,-22.79 14.84,-37.41l0 -54.18c0,-14.62 -4.95,-27.09 -14.84,-37.41 -9.89,-10.32 -22.58,-15.48 -38.06,-15.48l-559.86 0c-14.61,0 -27.09,5.16 -37.41,15.48 -10.32,10.32 -15.48,22.79 -15.48,37.41l0 797.23zm735.3 -565.03l0 375.39c0,74.82 25.16,137.17 75.47,187.05 50.3,49.89 113.3,74.82 188.99,74.82 85.13,0 152.21,-33.54 201.23,-100.62l0 28.39c0,14.62 5.17,27.09 15.48,37.4 10.33,10.32 23.23,15.48 38.71,15.48l54.18 0c14.62,0 27.08,-5.16 37.41,-15.48 10.31,-10.31 15.48,-22.78 15.48,-37.4l0 -565.03c0,-14.62 -5.17,-27.08 -15.48,-37.41 -10.33,-10.32 -22.79,-15.48 -37.41,-15.48l-54.18 0c-15.48,0 -28.38,5.16 -38.71,15.48 -10.31,10.33 -15.48,22.79 -15.48,37.41l0 328.96c0,43.85 -14.62,80.62 -43.85,110.29 -29.24,29.66 -65.37,44.5 -108.36,44.5 -43.87,0 -80.2,-14.84 -109.01,-44.5 -28.81,-29.67 -43.22,-66.44 -43.22,-110.29l0 -328.96c0,-14.62 -5.16,-27.08 -15.47,-37.41 -10.32,-10.32 -23.23,-15.48 -38.71,-15.48l-54.17 0c-14.63,0 -27.09,5.16 -37.42,15.48 -10.32,10.33 -15.48,22.79 -15.48,37.41zm1385.46 341.85c16.34,0 30.1,-5.16 41.29,-15.48 11.18,-10.32 16.76,-22.78 16.76,-37.4 1.73,-100.63 -30.52,-185.99 -96.74,-256.07 -66.22,-70.09 -151.36,-105.14 -255.43,-105.14 -99.76,0 -183.39,33.75 -250.9,101.27 -67.51,67.5 -101.27,152 -101.27,253.49 0,101.47 34.62,185.97 103.85,253.48 69.22,67.51 155.45,101.26 258.65,101.26 118.67,0 212.85,-43 282.51,-129 9.45,-11.18 12.25,-23.01 8.39,-35.47 -3.88,-12.47 -13.12,-20.42 -27.75,-23.87l-74.81 -21.92c-2.59,-0.86 -6.88,-1.3 -12.9,-1.3 -14.62,0 -27.95,5.16 -39.99,15.48 -36.99,31.82 -82.14,47.73 -135.45,47.73 -47.3,0 -88.8,-13.55 -124.49,-40.63 -35.69,-27.09 -59.55,-62.57 -71.59,-106.43l479.87 0zm-108.35 -125.13l-370.24 0c12.04,-42.13 34.83,-76.11 68.37,-101.91 33.54,-25.8 71.39,-38.7 113.52,-38.7 43.87,0 83,12.9 117.4,38.7 34.4,25.8 58.05,59.78 70.95,101.91zm265.73 348.31c0,14.62 5.16,27.09 15.48,37.4 10.33,10.32 22.79,15.48 37.42,15.48l54.17 0c15.48,0 28.39,-5.16 38.71,-15.48 10.31,-10.31 15.48,-22.78 15.48,-37.4l0 -861.72c0,-14.63 -5.17,-27.1 -15.48,-37.42 -10.32,-10.32 -23.23,-15.48 -38.71,-15.48l-54.17 0c-14.63,0 -27.09,5.16 -37.42,15.48 -10.32,10.32 -15.48,22.79 -15.48,37.42l0 861.72zm743.05 -447.63c15.48,-2.59 26.87,-10.11 34.18,-22.59 7.31,-12.46 8.38,-25.57 3.23,-39.34 -37.85,-85.14 -118.69,-127.71 -242.52,-127.71 -76.55,0 -138.89,17.2 -187.05,51.61 -48.16,34.39 -72.25,86.85 -72.25,157.37 0,47.3 12.48,85.57 37.41,114.81 24.95,29.25 65.8,53.32 122.55,72.24l138.03 43.86c49.88,17.2 74.83,38.7 74.83,64.5 0,20.64 -10.33,36.76 -30.96,48.38 -20.64,11.61 -46.45,17.41 -77.41,17.41 -56.75,0 -96.32,-16.77 -118.67,-50.31 -11.19,-16.34 -26.23,-24.51 -45.16,-24.51l-64.49 9.03c-16.35,2.58 -28.6,9.89 -36.77,21.94 -8.17,12.04 -9.25,24.51 -3.22,37.41 18.06,45.57 49.66,81.26 94.81,107.07 45.14,25.79 101.69,38.69 169.63,38.69 77.4,0 141.04,-17.63 190.92,-52.89 49.88,-35.26 74.83,-87.72 74.83,-157.37 0,-48.16 -13.76,-88.37 -41.29,-120.63 -27.52,-32.24 -72.23,-59.11 -134.15,-80.62l-138.04 -46.44c-39.56,-13.75 -59.34,-31.82 -59.34,-54.18 0,-18.92 9.03,-33.32 27.09,-43.21 18.07,-9.9 40.42,-14.84 67.09,-14.84 48.16,0 82.12,12.47 101.9,37.41 14.62,15.48 30.54,23.22 47.74,23.22l67.08 -10.31z"/>
   <line class="fil2 str0" x1="-0" y1="3953.76" x2="10804.64" y2= "3953.76" />
   <path class="fil3" d="M4927.35 923.31c632,-177.5 1288.24,190.91 1465.76,822.9 232.29,875.86 -471.42,1696.94 -1386.45,1301.78l-4.6 -2 -4.47 -2.01c-297.29,-134.8 -476.89,-417.99 -452.48,-745.95 26.83,-360.26 279.38,-645.46 647.67,-667.55 -43.63,-2.19 -125.19,45.44 -159.79,69.22 -9.2,6.64 -18.21,13.31 -27.15,20.32 -199.02,156.33 -277.88,421.89 -236.31,666.46 53.92,317.4 301.51,547.99 609.61,337.36 235.87,-161.22 247.54,-352.42 205.55,-613.33 -45.06,-277.81 -100.01,-495.37 147.75,-698.39 -24.53,-8.56 -48.98,-15 -74.41,-20.2 -29.92,-5.95 -59.45,-9.87 -89.86,-12.45 -119.54,-10.09 -233.34,-1.16 -350.86,21.15 -347.26,65.93 -734.06,222.77 -876.59,574.34 -154.69,381.52 53.48,813.24 359.04,1053.41 205.94,160.18 446.28,243.25 708.1,217.2 -588.51,79.15 -1141.39,-285.27 -1303.4,-856.51 -177.51,-631.98 190.92,-1288.22 822.89,-1465.75z"/>
  </g>
 </g>
</svg>
